<?xml version="1.0" encoding="UTF-8"?>
<svg xmlns="http://www.w3.org/2000/svg" xmlns:xlink="http://www.w3.org/1999/xlink" width="191pt" height="38pt" viewBox="0 0 191 38" version="1.1">
<g id="surface1">
<path style=" stroke:none;fill-rule:nonzero;fill:rgb(0%,0%,0%);fill-opacity:1;" d="M 16.566406 11.804688 C 14.972656 9.804688 12.769531 8.824219 9.914062 8.824219 C 7.179688 8.824219 4.855469 9.886719 2.898438 11.96875 C 0.980469 14.050781 0 16.585938 0 19.605469 C 0 22.628906 0.980469 25.203125 2.898438 27.285156 C 4.855469 29.371094 7.179688 30.390625 9.914062 30.390625 C 12.769531 30.390625 14.972656 29.410156 16.566406 27.410156 L 16.566406 29.820312 L 21.828125 29.820312 L 21.828125 9.394531 L 16.566406 9.394531 Z M 6.855469 23.773438 C 5.792969 22.671875 5.265625 21.28125 5.265625 19.605469 C 5.265625 17.933594 5.792969 16.542969 6.855469 15.480469 C 7.914062 14.378906 9.261719 13.847656 10.894531 13.847656 C 12.527344 13.847656 13.871094 14.378906 14.933594 15.480469 C 16.035156 16.542969 16.566406 17.933594 16.566406 19.605469 C 16.566406 21.28125 16.035156 22.671875 14.933594 23.773438 C 13.871094 24.835938 12.527344 25.367188 10.894531 25.367188 C 9.261719 25.367188 7.914062 24.835938 6.855469 23.773438 Z M 36.433594 8.824219 C 33.578125 8.824219 31.375 9.804688 29.824219 11.804688 L 29.824219 9.394531 L 24.5625 9.394531 L 24.5625 37.988281 L 29.824219 37.988281 L 29.824219 27.410156 C 31.375 29.410156 33.578125 30.390625 36.433594 30.390625 C 39.167969 30.390625 41.535156 29.371094 43.453125 27.285156 C 45.410156 25.203125 46.390625 22.628906 46.390625 19.609375 C 46.390625 16.585938 45.410156 14.050781 43.453125 11.96875 C 41.535156 9.886719 39.167969 8.824219 36.433594 8.824219 Z M 31.417969 23.773438 C 30.355469 22.671875 29.824219 21.28125 29.824219 19.605469 C 29.824219 17.933594 30.355469 16.542969 31.417969 15.480469 C 32.476562 14.378906 33.824219 13.847656 35.457031 13.847656 C 37.089844 13.847656 38.433594 14.378906 39.496094 15.480469 C 40.597656 16.542969 41.128906 17.933594 41.128906 19.605469 C 41.128906 21.28125 40.597656 22.671875 39.496094 23.773438 C 38.433594 24.835938 37.089844 25.367188 35.457031 25.367188 C 33.824219 25.367188 32.476562 24.835938 31.417969 23.773438 Z M 59.9375 8.824219 C 57.078125 8.824219 54.875 9.804688 53.328125 11.804688 L 53.328125 9.394531 L 48.0625 9.394531 L 48.0625 37.988281 L 53.328125 37.988281 L 53.328125 27.410156 C 54.875 29.410156 57.078125 30.390625 59.9375 30.390625 C 62.667969 30.390625 65.035156 29.371094 66.953125 27.285156 C 68.914062 25.203125 69.890625 22.628906 69.890625 19.609375 C 69.890625 16.585938 68.914062 14.050781 66.953125 11.96875 C 65.035156 9.886719 62.667969 8.824219 59.9375 8.824219 Z M 54.917969 23.773438 C 53.855469 22.671875 53.328125 21.28125 53.328125 19.605469 C 53.328125 17.933594 53.855469 16.542969 54.917969 15.480469 C 55.976562 14.378906 57.324219 13.847656 58.957031 13.847656 C 60.589844 13.847656 61.933594 14.378906 62.996094 15.480469 C 64.097656 16.542969 64.628906 17.933594 64.628906 19.605469 C 64.628906 21.28125 64.097656 22.671875 62.996094 23.773438 C 61.9375 24.835938 60.589844 25.367188 58.957031 25.367188 C 57.324219 25.367188 55.976562 24.835938 54.917969 23.773438 Z M 54.917969 23.773438 "/>
<path style=" stroke:none;fill-rule:nonzero;fill:rgb(0%,0%,0%);fill-opacity:1;" d="M 78.597656 29.820312 L 78.597656 0 L 73.335938 0 L 73.335938 29.820312 Z M 94.839844 20.425781 C 94.839844 23.8125 93.082031 25.488281 90.351562 25.488281 C 87.902344 25.488281 86.308594 24.019531 86.308594 21.28125 L 86.308594 9.394531 L 81.046875 9.394531 L 81.046875 21.933594 C 81.046875 24.589844 81.78125 26.632812 83.210938 28.144531 C 84.679688 29.65625 86.515625 30.390625 88.757812 30.390625 C 91.53125 30.390625 93.574219 29.453125 94.835938 27.53125 L 94.835938 29.820312 L 100.101562 29.820312 L 100.101562 9.394531 L 94.839844 9.394531 Z M 114.542969 9.394531 L 109.933594 9.394531 L 109.933594 3.675781 L 104.671875 5.269531 L 104.671875 9.394531 L 101.121094 9.394531 L 101.121094 14.460938 L 104.671875 14.460938 L 104.671875 22.957031 C 104.671875 28.550781 107.324219 30.636719 114.542969 29.820312 L 114.542969 25.039062 C 111.527344 25.203125 109.933594 25.160156 109.933594 22.957031 L 109.933594 14.460938 L 114.542969 14.460938 Z M 118.828125 6.945312 C 120.613281 6.945312 122.070312 5.507812 122.09375 3.71875 C 122.074219 1.921875 120.625 0.46875 118.828125 0.449219 C 117.074219 0.449219 115.605469 1.960938 115.605469 3.71875 C 115.625 5.492188 117.054688 6.925781 118.828125 6.945312 Z M 121.480469 29.820312 L 121.480469 9.394531 L 116.21875 9.394531 L 116.21875 29.820312 Z M 141.636719 27.285156 C 143.714844 25.203125 144.777344 22.628906 144.777344 19.605469 C 144.777344 16.585938 143.714844 14.050781 141.636719 11.96875 C 139.554688 9.886719 136.984375 8.824219 133.964844 8.824219 C 130.945312 8.824219 128.375 9.886719 126.292969 11.96875 C 124.214844 14.050781 123.195312 16.585938 123.195312 19.605469 C 123.195312 22.628906 124.214844 25.203125 126.292969 27.285156 C 128.375 29.371094 130.945312 30.390625 133.964844 30.390625 C 136.984375 30.390625 139.554688 29.371094 141.636719 27.285156 Z M 130.007812 23.652344 C 128.988281 22.589844 128.457031 21.242188 128.457031 19.605469 C 128.457031 17.972656 128.988281 16.625 130.007812 15.5625 C 131.066406 14.5 132.375 13.96875 133.964844 13.96875 C 135.554688 13.96875 136.863281 14.5 137.921875 15.5625 C 138.984375 16.625 139.515625 17.972656 139.515625 19.605469 C 139.515625 21.242188 138.984375 22.589844 137.921875 23.652344 C 136.863281 24.714844 135.554688 25.242188 133.964844 25.242188 C 132.375 25.242188 131.066406 24.710938 130.007812 23.652344 Z M 157.792969 8.824219 C 155.019531 8.824219 152.980469 9.761719 151.714844 11.683594 L 151.714844 9.394531 L 146.449219 9.394531 L 146.449219 29.820312 L 151.714844 29.820312 L 151.714844 18.789062 C 151.714844 15.398438 153.46875 13.726562 156.203125 13.726562 C 158.648438 13.726562 160.242188 15.195312 160.242188 17.933594 L 160.242188 29.820312 L 165.503906 29.820312 L 165.503906 17.277344 C 165.503906 14.625 164.769531 12.582031 163.300781 11.070312 C 161.875 9.558594 160.039062 8.824219 157.792969 8.824219 Z M 172.808594 15.195312 C 172.808594 14.175781 173.828125 13.519531 175.175781 13.519531 C 176.683594 13.519531 177.785156 14.214844 178.4375 15.605469 L 182.925781 13.152344 C 181.335938 10.375 178.480469 8.824219 175.175781 8.824219 C 172.972656 8.824219 171.136719 9.394531 169.625 10.578125 C 168.15625 11.722656 167.421875 13.316406 167.421875 15.316406 C 167.421875 19.566406 171.214844 20.832031 174.234375 21.609375 C 176.316406 22.140625 177.949219 22.753906 177.949219 23.855469 C 177.949219 25.039062 177.011719 25.613281 175.132812 25.613281 C 173.054688 25.613281 171.746094 24.710938 171.136719 22.957031 L 166.566406 25.53125 C 168.074219 28.757812 170.929688 30.390625 175.132812 30.390625 C 177.460938 30.390625 179.417969 29.820312 180.96875 28.714844 C 182.558594 27.570312 183.335938 25.9375 183.335938 23.855469 C 183.375 19.484375 179.5 18.054688 176.519531 17.441406 C 174.441406 16.910156 172.808594 16.296875 172.808594 15.195312 Z M 189.945312 29.328125 C 191.296875 27.976562 191.296875 25.78125 189.945312 24.425781 C 188.59375 23.074219 186.398438 23.074219 185.046875 24.425781 C 183.695312 25.78125 183.695312 27.976562 185.046875 29.328125 C 186.402344 30.675781 188.589844 30.675781 189.945312 29.328125 Z M 189.945312 29.328125 "/>
<path style=" stroke:none;fill-rule:nonzero;fill:rgb(0%,0%,0%);fill-opacity:1;" d="M 191.050781 26.867188 C 191.050781 28.804688 189.484375 30.378906 187.546875 30.378906 C 185.609375 30.378906 184.039062 28.804688 184.039062 26.867188 C 184.039062 24.929688 185.609375 23.355469 187.546875 23.355469 C 189.484375 23.355469 191.050781 24.929688 191.050781 26.867188 Z M 191.050781 26.867188 "/>
</g>
</svg>
