<svg xmlns="http://www.w3.org/2000/svg" xmlns:xlink="http://www.w3.org/1999/xlink" width="467.895" height="428.462" viewBox="0 0 467.895 428.462"><defs><style>.a{fill:#abb9c6;}.b{fill:#93a0aa;}.c{fill:#b6c7d3;}.d{fill:#c5d6e2;}.e{fill:url(#a);}.f{fill:url(#b);}</style><linearGradient id="a" x1="1" y1="0.046" x2="0" y2="0.97" gradientUnits="objectBoundingBox"><stop offset="0" stop-color="#c10262"/><stop offset="1" stop-color="#d3003b"/></linearGradient><linearGradient id="b" x1="0.95" y1="0.029" x2="-0.67" y2="1" gradientUnits="objectBoundingBox"><stop offset="0" stop-color="#d9006d"/><stop offset="1" stop-color="#ff034a"/></linearGradient></defs><path class="a" d="M330.826,473.186H165.6l11.8-27.6,4.492-10.495,9.8-22.93H304.737l9.8,22.93,4.491,10.495Z" transform="translate(-14.266 -55.221)"/><path class="b" d="M316.074,435.092H183.427l9.8-22.93H306.272Z" transform="translate(-15.801 -55.221)"/><path class="c" d="M369.779,488.447H118.535a48.04,48.04,0,0,1,39.7-20.989H330.079a48.041,48.041,0,0,1,39.7,20.989Z" transform="translate(-10.211 -59.985)"/><path class="a" d="M467.895,52.207V351.031a30.625,30.625,0,0,1-30.622,30.632H30.622A30.625,30.625,0,0,1,0,351.031V52.207A30.625,30.625,0,0,1,30.622,21.575H437.273A30.625,30.625,0,0,1,467.895,52.207Z" transform="translate(0 -21.575)"/><path class="d" d="M483.478,52.207V351.031a30.625,30.625,0,0,1-30.622,30.632H180.9l22.437-54.717L328.552,21.575h124.3A30.625,30.625,0,0,1,483.478,52.207Z" transform="translate(-15.583 -21.575)"/><path class="e" d="M467.895,52.207V326.946H0V52.207A30.625,30.625,0,0,1,30.622,21.575H437.273A30.625,30.625,0,0,1,467.895,52.207Z" transform="translate(0 -21.575)"/><path class="f" d="M485.593,52.207V326.946H205.45L330.667,21.575h124.3A30.625,30.625,0,0,1,485.593,52.207Z" transform="translate(-17.698 -21.575)"/><path class="a" d="M255.261,391.733a7.871,7.871,0,0,1-4.876-14.051c5.7-4.523,14.192.885,12.541,7.953A7.957,7.957,0,0,1,255.261,391.733Z" transform="translate(-21.312 -52.108)"/></svg>