<svg xmlns="http://www.w3.org/2000/svg" width="25.45" height="25.5" viewBox="0 0 25.45 25.5"><defs><style>.a{fill:#fff;}</style></defs><path class="a" d="M27.561,21.092v3.839a2.559,2.559,0,0,1-2.79,2.559,25.324,25.324,0,0,1-11.043-3.928,24.953,24.953,0,0,1-7.678-7.678A25.324,25.324,0,0,1,2.122,4.79,2.559,2.559,0,0,1,4.669,2H8.508a2.559,2.559,0,0,1,2.559,2.2,16.43,16.43,0,0,0,.9,3.6,2.559,2.559,0,0,1-.576,2.7L9.762,12.122A20.474,20.474,0,0,0,17.439,19.8l1.625-1.625a2.559,2.559,0,0,1,2.7-.576,16.43,16.43,0,0,0,3.6.9,2.559,2.559,0,0,1,2.2,2.6Z" transform="translate(-2.112 -2)"/></svg>